<?xml version="1.0" standalone="no"?>
<!DOCTYPE svg PUBLIC "-//W3C//DTD SVG 20010904//EN"
 "http://www.w3.org/TR/2001/REC-SVG-20010904/DTD/svg10.dtd">
<svg version="1.0" xmlns="http://www.w3.org/2000/svg"
 width="700.000000pt" height="700.000000pt" viewBox="0 0 700.000000 700.000000"
 preserveAspectRatio="xMidYMid meet">
<metadata>
Created by potrace 1.11, written by Peter Selinger 2001-2013
</metadata>
<g transform="translate(0.000000,700.000000) scale(0.100000,-0.100000)"
fill="#000000" stroke="none">
<path d="M2356 6945 c-275 -137 -411 -308 -432 -542 l-7 -75 -46 5 c-25 3 -94
24 -153 46 -59 23 -123 41 -143 41 -46 0 -99 -25 -119 -55 -15 -23 -15 -23 28
-23 52 1 106 -28 186 -100 l55 -49 -76 5 c-49 3 -84 0 -98 -8 l-23 -12 33 -20
c18 -11 57 -39 86 -63 29 -24 58 -45 65 -47 27 -9 -13 -36 -79 -54 -64 -17
-122 -14 -185 11 -14 6 -18 2 -18 -19 0 -44 -29 -113 -96 -228 -116 -198 -144
-288 -144 -459 0 -115 22 -286 60 -479 21 -106 87 -402 95 -430 4 -12 -7 -19
-39 -28 -96 -25 -144 -101 -168 -266 -13 -93 -2 -254 28 -391 20 -93 109 -271
184 -370 60 -78 118 -182 176 -315 71 -163 135 -203 267 -164 9 3 19 -1 22 -8
64 -189 132 -337 224 -483 109 -174 295 -407 463 -581 l78 -80 11 -185 c8
-130 8 -192 1 -211 -20 -48 -342 -318 -381 -318 -13 0 -108 -36 -211 -79 -104
-44 -212 -87 -241 -95 -29 -9 -156 -32 -283 -51 -279 -43 -445 -76 -591 -116
-376 -104 -614 -267 -766 -525 -26 -44 -50 -89 -54 -101 l-6 -23 3420 0 c2308
0 3421 3 3421 10 0 6 -14 36 -32 68 -145 262 -350 437 -635 546 -175 67 -335
99 -815 166 -226 31 -275 45 -388 107 -115 64 -253 123 -266 112 -8 -6 -32 7
-75 42 -138 110 -271 232 -280 257 -7 17 -8 77 -4 167 12 226 3 203 144 359
151 166 265 310 376 476 100 149 161 268 220 427 24 65 45 117 47 117 2 -1 26
-5 55 -9 40 -5 61 -3 96 13 52 23 76 54 121 158 53 126 113 240 144 276 103
119 194 301 223 448 32 155 32 359 1 457 -27 88 -66 136 -130 159 -26 10 -48
18 -50 19 -1 1 16 76 37 166 77 319 121 604 121 785 0 88 -23 431 -36 522 l-5
43 -34 -25 c-39 -30 -45 -23 -45 51 l0 45 -36 -22 -35 -22 16 38 c31 76 85
160 160 254 41 52 71 96 66 98 -25 8 -184 -42 -272 -86 l-97 -47 24 65 c13 36
44 104 68 153 24 48 41 87 37 87 -9 0 -152 -88 -172 -106 -15 -13 -17 -10 -23
28 -18 111 -115 247 -250 349 -83 62 -146 125 -146 147 0 4 13 29 30 55 l30
47 -74 0 c-72 0 -74 -1 -121 -42 -34 -30 -46 -36 -42 -23 3 11 8 30 12 43 l6
22 -1203 0 -1203 0 -109 -55z m624 -1061 l125 -29 395 0 c377 0 400 1 495 23
636 147 1187 -240 1266 -887 9 -79 10 -135 1 -254 -7 -83 -13 -228 -14 -322
-1 -93 -3 -149 -5 -123 -4 41 -10 52 -45 83 -47 40 -127 72 -209 86 -79 13
-384 27 -504 23 -78 -3 -92 -1 -62 6 75 19 270 40 374 40 123 0 197 -17 295
-66 37 -19 68 -30 68 -25 0 21 -120 113 -195 151 -164 81 -354 106 -616 80
-113 -11 -511 -74 -571 -91 -56 -15 -84 -80 -58 -130 21 -38 67 -52 164 -47
l92 4 -66 -32 c-64 -30 -120 -76 -152 -122 l-16 -24 -79 18 c-100 23 -226 23
-326 0 l-79 -18 -16 24 c-42 60 -127 120 -222 153 -30 11 -18 12 92 7 126 -5
126 -5 152 21 55 55 17 135 -77 162 -57 15 -352 59 -516 75 -350 34 -594 -23
-762 -178 -38 -35 -69 -70 -69 -77 0 -7 -12 -21 -27 -31 -42 -27 -52 -45 -53
-91 0 -24 -4 -43 -10 -43 -25 0 8 425 56 710 81 483 268 794 546 906 108 44
170 53 343 50 132 -3 182 -8 285 -32z m-450 -1383 l105 -18 -210 0 c-258 -1
-427 -17 -512 -48 -35 -12 -63 -21 -63 -19 0 2 19 14 43 28 53 31 152 64 226
76 76 12 283 3 411 -19z m115 -62 c270 -23 432 -75 526 -169 71 -70 86 -125
70 -247 -21 -154 -108 -270 -253 -338 -151 -71 -277 -88 -628 -83 -247 3 -256
4 -303 27 -70 36 -161 136 -202 223 -48 100 -65 189 -65 340 l0 127 36 29 c20
17 61 40 92 51 107 41 480 62 727 40z m2295 -9 c69 -8 112 -18 160 -41 110
-51 110 -51 110 -204 0 -151 -19 -244 -71 -346 -39 -77 -132 -177 -196 -210
-47 -23 -56 -24 -303 -27 -351 -5 -477 12 -628 83 -145 68 -232 186 -252 338
-16 127 6 195 85 265 85 75 262 129 491 151 114 11 465 6 604 -9z m-3556 -192
c10 -40 21 -80 24 -88 3 -8 -13 8 -35 36 -23 28 -57 58 -77 68 -20 9 -34 22
-30 27 8 14 44 28 74 28 23 1 27 -5 44 -71z m4335 48 c13 -13 11 -16 -12 -25
-15 -6 -47 -31 -72 -56 l-44 -46 20 68 c10 37 19 72 19 77 0 13 72 -1 89 -18z
m-4478 -130 c-15 -111 -16 -291 -1 -347 6 -24 19 -66 30 -94 10 -27 26 -77 35
-109 29 -103 117 -261 197 -351 58 -67 47 -34 -17 53 -36 48 -89 133 -117 189
-46 91 -52 111 -56 180 -2 50 2 102 12 145 20 88 86 259 97 252 4 -2 16 -29
25 -59 17 -54 17 -54 -9 -112 -58 -130 -73 -263 -38 -338 18 -38 53 -78 117
-135 16 -15 42 -43 57 -63 17 -23 40 -40 58 -44 22 -4 29 -11 29 -29 0 -13 4
-24 9 -24 5 0 17 -26 26 -57 16 -55 83 -265 92 -290 3 -7 -13 -14 -42 -19 -69
-10 -106 11 -138 78 -112 237 -151 311 -200 371 -83 104 -165 269 -188 380
-39 184 -36 383 7 486 22 53 27 31 15 -63z m4542 19 c20 -67 14 -322 -10 -436
-26 -120 -92 -255 -186 -382 -72 -96 -109 -163 -172 -310 -21 -48 -51 -102
-67 -119 -26 -28 -32 -30 -78 -26 -28 3 -52 7 -55 9 -2 2 21 83 52 179 30 96
58 187 60 203 4 19 11 27 25 27 11 0 37 18 57 40 45 49 68 73 125 128 24 23
52 62 62 87 26 68 15 176 -28 292 l-35 91 20 64 19 63 24 -54 c58 -130 78
-211 78 -321 1 -103 0 -106 -41 -192 -41 -86 -98 -177 -156 -250 -33 -42 -30
-66 3 -27 44 51 150 218 174 272 14 31 31 78 37 104 6 27 22 76 35 110 44 113
49 258 18 488 -5 38 -4 39 11 20 8 -11 21 -38 28 -60z m-2133 27 l65 -17 6
-110 c10 -159 44 -239 141 -332 149 -140 373 -190 822 -181 207 4 212 5 269
32 111 54 211 182 264 339 l24 72 -6 -110 c-3 -60 -8 -143 -12 -184 l-6 -74
31 6 30 6 -29 -112 c-135 -506 -243 -833 -334 -1004 -162 -306 -546 -752 -834
-969 -173 -129 -246 -156 -467 -172 -231 -17 -446 13 -556 79 -314 186 -777
691 -973 1062 -91 171 -199 498 -334 1004 l-29 112 29 -6 c35 -7 34 -34 9 267
-11 129 -20 238 -20 243 0 4 5 7 10 7 6 0 10 -30 10 -71 0 -197 127 -418 285
-495 60 -29 62 -29 273 -33 451 -7 665 41 821 184 100 93 146 211 139 361 l-3
75 50 14 c79 22 85 23 175 23 49 0 113 -7 150 -16z m-2276 -48 l33 -47 -33
-76 c-28 -66 -47 -127 -80 -256 l-7 -30 -7 30 c-15 61 -10 209 10 291 17 74
38 134 47 134 1 0 18 -21 37 -46z m4331 -102 c15 -68 18 -222 6 -277 -5 -26
-9 -18 -28 57 -12 47 -37 127 -57 176 -20 49 -36 94 -36 99 0 6 14 30 32 54
l32 44 19 -43 c10 -24 25 -73 32 -110z m-458 26 c-2 -18 -4 -6 -4 27 0 33 2
48 4 33 2 -15 2 -42 0 -60z m-3712 -328 c4 -17 4 -68 0 -113 l-7 -83 61 -91
c34 -50 61 -98 61 -107 0 -37 -53 -5 -88 54 -11 19 -30 41 -42 48 -56 34 -72
224 -24 297 21 33 31 32 39 -5z m3972 -17 c34 -79 9 -263 -38 -278 -10 -4 -26
-20 -35 -37 -19 -36 -62 -78 -80 -78 -21 0 -1 48 56 135 l52 80 -6 70 c-5 69
8 145 26 145 5 0 16 -17 25 -37z m-3891 -271 c-3 -2 -19 17 -35 44 -22 34 -31
60 -31 90 0 86 13 78 42 -26 16 -56 26 -105 24 -108z m3799 52 c-15 -25 -28
-44 -30 -42 -2 2 8 46 23 98 l27 95 3 -53 c3 -43 -2 -62 -23 -98z m-2488
-2408 c160 -103 243 -121 568 -121 341 0 431 21 610 139 44 30 117 86 161 124
l81 70 12 -34 c13 -36 112 -129 278 -263 l92 -74 -30 -38 c-122 -154 -394
-301 -671 -362 -68 -15 -68 -15 -63 7 10 43 35 219 32 222 -1 2 -20 -54 -40
-124 -21 -69 -39 -127 -40 -129 -12 -12 -285 -33 -422 -33 -150 1 -367 18
-378 30 -3 3 -34 104 -71 224 -36 121 -69 222 -72 225 -4 3 -4 -3 -1 -14 11
-37 69 -416 65 -420 -2 -3 -54 9 -115 25 -181 47 -349 123 -478 215 -66 47
-175 148 -175 162 0 6 42 43 92 84 167 134 266 227 279 263 l12 34 101 -82
c56 -46 133 -104 173 -130z"/>
<path d="M2495 4350 c102 -8 195 -26 274 -55 24 -8 46 -13 48 -11 7 7 -119 45
-201 61 -43 8 -110 14 -149 14 -70 -2 -69 -2 28 -9z"/>
<path d="M2338 4343 c7 -3 16 -2 19 1 4 3 -2 6 -13 5 -11 0 -14 -3 -6 -6z"/>
<path d="M2285 4294 c-91 -18 -116 -29 -151 -65 -24 -25 -29 -39 -29 -82 0
-130 136 -267 305 -308 117 -28 356 -5 510 50 71 25 56 26 -55 2 -50 -10 -107
-22 -129 -26 l-38 -6 37 33 c68 59 93 155 61 233 -18 42 -11 43 56 9 64 -33
147 -109 165 -153 11 -27 17 -31 24 -20 33 52 -39 159 -158 236 -147 95 -400
136 -598 97z m143 -119 c-26 -37 -33 -57 -36 -108 -5 -76 16 -126 74 -177 l38
-33 -39 7 c-64 12 -143 46 -188 80 -61 46 -109 121 -105 165 3 32 7 36 53 52
28 10 41 19 30 19 -55 3 90 36 172 39 l33 1 -32 -45z"/>
<path d="M2845 4268 c11 -6 42 -24 68 -40 27 -16 46 -24 42 -18 -8 13 -106 70
-120 70 -5 -1 -1 -6 10 -12z"/>
<path d="M2990 4175 c13 -14 26 -25 28 -25 3 0 -5 11 -18 25 -13 14 -26 25
-28 25 -3 0 5 -11 18 -25z"/>
<path d="M4405 4353 c-50 -7 -189 -44 -205 -55 -13 -8 -13 -9 0 -5 93 28 213
51 295 57 l100 7 -80 0 c-44 0 -93 -2 -110 -4z"/>
<path d="M4638 4343 c7 -3 16 -2 19 1 4 3 -2 6 -13 5 -11 0 -14 -3 -6 -6z"/>
<path d="M4392 4299 c-230 -30 -452 -181 -452 -308 0 -38 17 -50 26 -17 4 16
30 43 70 71 35 25 64 52 64 59 0 12 16 22 87 52 l32 14 -15 -35 c-33 -80 -8
-183 60 -243 45 -39 40 -39 -116 -7 -67 14 -123 23 -126 21 -2 -3 27 -14 65
-25 255 -75 476 -73 612 6 142 82 222 241 166 327 -50 76 -257 113 -473 85z
m325 -105 c29 -8 64 -25 79 -37 23 -20 26 -29 20 -58 -17 -92 -113 -182 -235
-219 -84 -26 -88 -25 -46 12 57 49 78 100 73 175 -3 51 -10 71 -36 109 l-33
46 63 -7 c35 -3 86 -13 115 -21z"/>
<path d="M4103 4258 c-62 -30 -193 -140 -193 -161 0 -6 24 11 53 39 58 56 95
83 171 125 68 38 47 36 -31 -3z"/>
<path d="M3361 3698 c-32 -235 -47 -290 -136 -478 -93 -197 -106 -248 -81
-313 21 -55 81 -112 133 -126 61 -16 459 -13 492 3 54 29 81 65 81 113 0 35
-18 90 -35 111 -2 2 -25 -11 -51 -28 -66 -42 -133 -60 -221 -60 -83 0 -102 7
-156 58 -69 66 -70 112 -10 342 l35 135 -6 187 c-3 102 -9 196 -14 207 -5 14
-15 -36 -31 -151z"/>
<path d="M3915 2354 c-127 -39 -208 -49 -390 -48 -172 1 -247 9 -433 45 -111
22 -132 20 -132 -10 0 -24 27 -33 175 -60 333 -62 634 -51 850 30 46 17 55 24
55 45 0 30 -17 30 -125 -2z"/>
<path d="M3615 2083 c-45 -13 -114 -13 -225 -1 -39 4 -31 -25 10 -39 70 -24
253 -10 279 21 21 25 -10 33 -64 19z"/>
</g>
</svg>
